<svg width="35" height="70" viewBox="0 0 35 70" fill="none" xmlns="http://www.w3.org/2000/svg">
<path d="M0.542758 34.4507L0.549187 34.4571C0.719655 34.6289 0.922386 34.7652 1.14572 34.8583C1.36906 34.9514 1.6086 34.9994 1.85057 34.9996C2.05417 34.9995 2.25637 34.9659 2.44909 34.9003L12.9422 31.3407L33.0776 11.2053C34.3086 9.97421 35.0001 8.3046 35 6.56372C34.9999 4.82284 34.3083 3.15329 33.0772 1.92235C31.8462 0.691414 30.1766 -7.62093e-05 28.4357 6.29966e-09C26.6948 7.62219e-05 25.0253 0.691712 23.7943 1.92276L3.65885 22.0582L0.0996295 32.551C-0.0124858 32.8773 -0.0303815 33.2286 0.0479944 33.5646C0.12637 33.9006 0.297845 34.2077 0.542758 34.4507ZM25.4664 3.5947C26.255 2.81214 27.3216 2.37394 28.4325 2.37608C29.5435 2.37821 30.6084 2.8205 31.3939 3.60609C32.1795 4.39168 32.6218 5.45655 32.6239 6.56752C32.626 7.6785 32.1878 8.74504 31.4052 9.5336L28.7573 12.1814L22.8185 6.24254L25.4664 3.5947ZM5.72116 23.3399L21.1465 7.91449L27.0854 13.8534L11.66 29.2787L2.67224 32.3276L5.72116 23.3399Z" fill="white"/>
</svg>
